<svg width="55" height="64" viewBox="0 0 55 64" fill="none" xmlns="http://www.w3.org/2000/svg">
<g id="Logo">
<rect id="Rectangle 13" x="11.405" y="62.8262" width="32.1017" height="1.17391" fill="#FF1F1E"/>
<rect id="Rectangle 14" x="13.1226" y="42.3914" width="1.18895" height="19.5652" fill="#0B2831"/>
<rect id="Rectangle 15" x="39.9839" y="42.3914" width="1.18895" height="19.5652" fill="#0B2831"/>
<rect id="Rectangle 16" x="15.8086" y="42.3914" width="1.18895" height="19.5652" fill="#0B2831"/>
<rect id="Rectangle 17" x="37.2979" y="42.3914" width="1.18895" height="19.5652" fill="#0B2831"/>
<rect id="Rectangle 18" x="18.4949" y="26.6086" width="1.18895" height="35.3478" fill="#0B2831"/>
<rect id="Rectangle 19" x="21.1809" y="26.6086" width="1.18895" height="35.3478" fill="#0B2831"/>
<rect id="Rectangle 20" x="34.6116" y="26.6086" width="1.18895" height="35.3478" fill="#0B2831"/>
<rect id="Rectangle 21" x="31.9255" y="26.6086" width="1.18895" height="35.3478" fill="#0B2831"/>
<rect id="Rectangle 22" x="23.8672" y="10.1304" width="1.18895" height="51.8261" fill="#0B2831"/>
<rect id="Rectangle 23" x="29.2395" y="10.1304" width="1.18895" height="51.8261" fill="#0B2831"/>
<rect id="Rectangle 24" x="26.5532" width="1.18895" height="61.9565" fill="#0B2831"/>
<path id="Subtract" fill-rule="evenodd" clip-rule="evenodd" d="M1.10083 40.6958C1.10083 29.3699 8.43552 19.7353 18.6709 16.1702V17.5584C9.17931 21.0644 2.42194 30.101 2.42194 40.6959C2.42194 49.1421 6.7163 56.5979 13.2668 61.0509H11.24V61.1997C5.06862 56.4414 1.10083 49.0261 1.10083 40.6958ZM43.819 61.0509C49.881 56.2876 53.767 48.9398 53.767 40.6958C53.767 29.2242 46.2424 19.4878 35.8006 16.0356V17.4158C45.4999 20.8141 52.446 29.9541 52.446 40.6959C52.446 49.1421 48.1516 56.5979 41.6011 61.0509H43.819Z" fill="#0B2831"/>
</g>
</svg>
