<svg width="55" height="64" viewBox="0 0 55 64" fill="none" xmlns="http://www.w3.org/2000/svg">
<rect x="11.4052" y="62.8262" width="32.1017" height="1.17391" fill="#FF1F1E"/>
<rect x="13.1226" y="42.3914" width="1.18895" height="19.5652" fill="white"/>
<rect x="39.984" y="42.3914" width="1.18895" height="19.5652" fill="white"/>
<rect x="15.8086" y="42.3914" width="1.18895" height="19.5652" fill="white"/>
<rect x="37.2979" y="42.3914" width="1.18895" height="19.5652" fill="white"/>
<rect x="18.4948" y="26.6086" width="1.18895" height="35.3478" fill="white"/>
<rect x="21.1809" y="26.6086" width="1.18895" height="35.3478" fill="white"/>
<rect x="34.6117" y="26.6086" width="1.18895" height="35.3478" fill="white"/>
<rect x="31.9255" y="26.6086" width="1.18895" height="35.3478" fill="white"/>
<rect x="23.8671" y="10.1304" width="1.18895" height="51.8261" fill="white"/>
<rect x="29.2394" y="10.1304" width="1.18895" height="51.8261" fill="white"/>
<rect x="26.5532" width="1.18895" height="61.9565" fill="white"/>
<path fill-rule="evenodd" clip-rule="evenodd" d="M1.10083 40.6956C1.10083 29.3696 8.43553 19.7351 18.6709 16.1699V17.5582C9.17931 21.0642 2.42194 30.1008 2.42194 40.6957C2.42194 49.1418 6.7163 56.5976 13.2668 61.0507H11.24V61.1995C5.06862 56.4411 1.10083 49.0259 1.10083 40.6956ZM43.819 61.0507C49.881 56.2873 53.767 48.9395 53.767 40.6956C53.767 29.224 46.2424 19.4876 35.8006 16.0354V17.4155C45.4999 20.8139 52.446 29.9539 52.446 40.6957C52.446 49.1418 48.1516 56.5976 41.6011 61.0507H43.819Z" fill="white"/>
</svg>
