<svg width="33" height="36" viewBox="0 0 33 36" fill="none" xmlns="http://www.w3.org/2000/svg">
<path d="M9.10449 7.125C8.45533 7.125 7.91699 6.58667 7.91699 5.9375V1.1875C7.91699 0.538333 8.45533 0 9.10449 0C9.75366 0 10.292 0.538333 10.292 1.1875V5.9375C10.292 6.58667 9.75366 7.125 9.10449 7.125Z" fill="#24333D"/>
<path d="M21.7705 7.125C21.1213 7.125 20.583 6.58667 20.583 5.9375V1.1875C20.583 0.538333 21.1213 0 21.7705 0C22.4197 0 22.958 0.538333 22.958 1.1875V5.9375C22.958 6.58667 22.4197 7.125 21.7705 7.125Z" fill="#24333D"/>
<path d="M9.89583 20.976C9.69 20.976 9.48417 20.9443 9.29417 20.8493C9.10417 20.7702 8.93 20.6593 8.77167 20.5168C8.48667 20.216 8.3125 19.8043 8.3125 19.3927C8.3125 19.1868 8.36 18.981 8.43917 18.791C8.51833 18.601 8.62917 18.4268 8.77167 18.2685C8.93 18.126 9.10417 18.0152 9.29417 17.936C9.86417 17.6985 10.5767 17.8252 11.02 18.2685C11.1625 18.4268 11.2733 18.601 11.3525 18.791C11.4317 18.981 11.4792 19.1868 11.4792 19.3927C11.4792 19.8043 11.305 20.216 11.02 20.5168C10.7192 20.8018 10.3075 20.976 9.89583 20.976Z" fill="#24333D"/>
<path d="M15.4378 20.9777C15.0262 20.9777 14.6145 20.8035 14.3137 20.5185C14.1712 20.3602 14.0603 20.186 13.9812 19.996C13.8998 19.8057 13.8568 19.6012 13.8545 19.3943C13.8545 18.9827 14.0287 18.571 14.3137 18.2702C14.757 17.8268 15.4537 17.6843 16.0395 17.9377C16.2295 18.0168 16.4037 18.1277 16.562 18.2702C16.847 18.571 17.0212 18.9827 17.0212 19.3943C17.0212 19.6002 16.9895 19.806 16.8945 19.996C16.8153 20.186 16.7045 20.3602 16.562 20.5185C16.4037 20.661 16.2295 20.7718 16.0395 20.851C15.8495 20.946 15.6437 20.9777 15.4378 20.9777Z" fill="#24333D"/>
<path d="M9.89583 26.5192C9.69 26.5192 9.48417 26.4717 9.29417 26.3925C9.10417 26.3133 8.93 26.2025 8.77167 26.06C8.48667 25.7592 8.3125 25.3633 8.3125 24.9358C8.3125 24.73 8.36 24.5242 8.43917 24.3342C8.51833 24.1283 8.62917 23.97 8.77167 23.8117C8.93 23.6692 9.10417 23.5583 9.29417 23.4792C9.86417 23.2258 10.5767 23.3683 11.02 23.8117C11.1625 23.97 11.2733 24.1283 11.3525 24.3342C11.4317 24.5242 11.4792 24.73 11.4792 24.9358C11.4792 25.3633 11.305 25.7592 11.02 26.06C10.7192 26.345 10.3075 26.5192 9.89583 26.5192Z" fill="#24333D"/>
<path d="M28.8962 13.6008H1.97949C1.33033 13.6008 0.791992 13.0625 0.791992 12.4133C0.791992 11.7642 1.33033 11.2258 1.97949 11.2258H28.8962C29.5453 11.2258 30.0837 11.7642 30.0837 12.4133C30.0837 13.0625 29.5453 13.6008 28.8962 13.6008Z" fill="#24333D"/>
<path d="M24.9378 35.6249C20.7895 35.6249 17.417 32.2524 17.417 28.1041C17.417 23.9558 20.7895 20.5833 24.9378 20.5833C29.0862 20.5833 32.4587 23.9558 32.4587 28.1041C32.4587 32.2524 29.0862 35.6249 24.9378 35.6249ZM24.9378 22.9583C22.1037 22.9583 19.792 25.2699 19.792 28.1041C19.792 30.9383 22.1037 33.2499 24.9378 33.2499C27.772 33.2499 30.0837 30.9383 30.0837 28.1041C30.0837 25.2699 27.772 22.9583 24.9378 22.9583Z" fill="#24333D"/>
<path d="M27.2967 29.3708H22.5625C21.9133 29.3708 21.375 28.8325 21.375 28.1833C21.375 27.5342 21.9133 26.9958 22.5625 26.9958H27.2967C27.6116 26.9958 27.9137 27.121 28.1364 27.3437C28.3591 27.5664 28.4842 27.8684 28.4842 28.1833C28.4842 28.4983 28.3591 28.8003 28.1364 29.023C27.9137 29.2457 27.6116 29.3708 27.2967 29.3708Z" fill="#24333D"/>
<path d="M24.9375 31.7933C24.2883 31.7933 23.75 31.2549 23.75 30.6057V25.8716C23.75 25.2224 24.2883 24.6841 24.9375 24.6841C25.5867 24.6841 26.125 25.2224 26.125 25.8716V30.6057C26.125 31.2549 25.5867 31.7933 24.9375 31.7933Z" fill="#24333D"/>
<path d="M20.7733 34.0417H9.10417C3.325 34.0417 0 30.7167 0 24.9375V11.4792C0 5.7 3.325 2.375 9.10417 2.375H21.7708C27.55 2.375 30.875 5.7 30.875 11.4792V23.9242C30.875 24.415 30.5742 24.8583 30.0992 25.0325C29.64 25.2067 29.1175 25.08 28.785 24.7C27.8033 23.5917 26.3942 22.9583 24.9217 22.9583C22.0875 22.9583 19.7758 25.27 19.7758 28.1042C19.7758 29.0383 20.0292 29.9567 20.52 30.7483C20.7892 31.2233 21.1375 31.6192 21.5175 31.9517C21.8975 32.2683 22.04 32.7908 21.8658 33.2658C21.7233 33.725 21.28 34.0417 20.7733 34.0417ZM9.10417 4.75C4.57583 4.75 2.375 6.95083 2.375 11.4792V24.9375C2.375 29.4658 4.57583 31.6667 9.10417 31.6667H18.3192C17.7252 30.5733 17.4149 29.3484 17.4167 28.1042C17.4167 23.9558 20.7892 20.5833 24.9375 20.5833C26.1883 20.5833 27.4233 20.9 28.5 21.4858V11.4792C28.5 6.95083 26.2992 4.75 21.7708 4.75H9.10417Z" fill="#24333D"/>
</svg>
